<mxfile host="Electron" modified="2023-04-04T12:37:47.632Z" agent="Mozilla/5.0 (Macintosh; Intel Mac OS X 10_15_7) AppleWebKit/537.36 (KHTML, like Gecko) draw.io/21.1.2 Chrome/106.0.5249.199 Electron/21.4.3 Safari/537.36" etag="ZbPssOxsWfBwF0pVlQ6o" version="21.1.2" type="device">
  <diagram name="Page-1" id="IanU65lXr5YfgjGVrclR">
    <mxGraphModel dx="1423" dy="1037" grid="1" gridSize="10" guides="1" tooltips="1" connect="1" arrows="1" fold="1" page="1" pageScale="1" pageWidth="1169" pageHeight="827" math="0" shadow="0">
      <root>
        <mxCell id="0" />
        <mxCell id="1" parent="0" />
        <mxCell id="l7ehpIWS_LAEImh4VPKt-39" style="rounded=0;orthogonalLoop=1;jettySize=auto;html=1;edgeStyle=orthogonalEdgeStyle;curved=1;entryX=0;entryY=0.75;entryDx=0;entryDy=0;" parent="1" source="l7ehpIWS_LAEImh4VPKt-16" edge="1">
          <mxGeometry relative="1" as="geometry">
            <mxPoint x="50" y="259.0710714285715" as="targetPoint" />
            <Array as="points">
              <mxPoint x="30" y="540" />
              <mxPoint x="30" y="259" />
            </Array>
          </mxGeometry>
        </mxCell>
        <mxCell id="l7ehpIWS_LAEImh4VPKt-40" value="Algorithm" style="edgeLabel;html=1;align=center;verticalAlign=middle;resizable=0;points=[];" parent="l7ehpIWS_LAEImh4VPKt-39" vertex="1" connectable="0">
          <mxGeometry x="-0.2995" y="-4" relative="1" as="geometry">
            <mxPoint y="-67" as="offset" />
          </mxGeometry>
        </mxCell>
        <mxCell id="5gdzuKLON3IAG99veX0M-87" style="rounded=0;orthogonalLoop=1;jettySize=auto;html=1;edgeStyle=orthogonalEdgeStyle;curved=1;entryX=0;entryY=0.5;entryDx=0;entryDy=0;" parent="1" source="5gdzuKLON3IAG99veX0M-91" target="L8vNwuZ6u9W_NmucFzFV-18" edge="1">
          <mxGeometry relative="1" as="geometry">
            <mxPoint x="67.60000000000014" y="310" as="targetPoint" />
            <Array as="points">
              <mxPoint x="50" y="530" />
              <mxPoint x="50" y="225" />
            </Array>
          </mxGeometry>
        </mxCell>
        <mxCell id="5gdzuKLON3IAG99veX0M-88" value="Algorithm" style="edgeLabel;html=1;align=center;verticalAlign=middle;resizable=0;points=[];" parent="5gdzuKLON3IAG99veX0M-87" vertex="1" connectable="0">
          <mxGeometry x="-0.2995" y="-4" relative="1" as="geometry">
            <mxPoint y="1" as="offset" />
          </mxGeometry>
        </mxCell>
        <mxCell id="5gdzuKLON3IAG99veX0M-89" style="rounded=0;orthogonalLoop=1;jettySize=auto;html=1;edgeStyle=orthogonalEdgeStyle;curved=1;entryX=1;entryY=0.5;entryDx=0;entryDy=0;" parent="1" source="5gdzuKLON3IAG99veX0M-91" target="5gdzuKLON3IAG99veX0M-93" edge="1">
          <mxGeometry relative="1" as="geometry">
            <Array as="points">
              <mxPoint x="140" y="600" />
              <mxPoint x="530.0000000000001" y="600" />
              <mxPoint x="530.0000000000001" y="225" />
            </Array>
          </mxGeometry>
        </mxCell>
        <mxCell id="5gdzuKLON3IAG99veX0M-90" value="Algorithm" style="edgeLabel;html=1;align=center;verticalAlign=middle;resizable=0;points=[];" parent="5gdzuKLON3IAG99veX0M-89" vertex="1" connectable="0">
          <mxGeometry x="-0.2447" y="-3" relative="1" as="geometry">
            <mxPoint x="4" y="17" as="offset" />
          </mxGeometry>
        </mxCell>
        <mxCell id="5gdzuKLON3IAG99veX0M-91" value="Requestor" style="rounded=1;whiteSpace=wrap;html=1;" parent="1" vertex="1">
          <mxGeometry x="80" y="500" width="120" height="60" as="geometry" />
        </mxCell>
        <mxCell id="5gdzuKLON3IAG99veX0M-92" value="]" style="group" parent="1" vertex="1" connectable="0">
          <mxGeometry x="310.0000000000001" y="180" width="180" height="110" as="geometry" />
        </mxCell>
        <mxCell id="5gdzuKLON3IAG99veX0M-93" value="" style="rounded=1;whiteSpace=wrap;html=1;fontSize=14;" parent="5gdzuKLON3IAG99veX0M-92" vertex="1">
          <mxGeometry width="180" height="90.72053571428572" as="geometry" />
        </mxCell>
        <mxCell id="5gdzuKLON3IAG99veX0M-94" value="Organization 2&lt;br&gt;Data steward&amp;nbsp;" style="text;html=1;strokeColor=none;fillColor=none;align=center;verticalAlign=middle;whiteSpace=wrap;rounded=0;fontSize=14;" parent="5gdzuKLON3IAG99veX0M-92" vertex="1">
          <mxGeometry x="14.400000000000002" y="97.98969072164948" width="151.20000000000002" height="17.010309278350515" as="geometry" />
        </mxCell>
        <mxCell id="L8vNwuZ6u9W_NmucFzFV-9" value="" style="sketch=0;html=1;dashed=0;whitespace=wrap;fillColor=#2875E2;strokeColor=#ffffff;points=[[0.005,0.63,0],[0.1,0.2,0],[0.9,0.2,0],[0.5,0,0],[0.995,0.63,0],[0.72,0.99,0],[0.5,1,0],[0.28,0.99,0]];verticalLabelPosition=bottom;align=center;verticalAlign=top;shape=mxgraph.kubernetes.icon;prIcon=pod" parent="5gdzuKLON3IAG99veX0M-92" vertex="1">
          <mxGeometry x="79.9986612576065" y="54.44142857142856" width="17.77420814479638" height="19.306607142857146" as="geometry" />
        </mxCell>
        <mxCell id="L8vNwuZ6u9W_NmucFzFV-10" value="&lt;span style=&quot;font-size: 12px;&quot;&gt;Anonymise-service&lt;/span&gt;" style="text;html=1;strokeColor=none;fillColor=none;align=center;verticalAlign=middle;whiteSpace=wrap;rounded=0;fontSize=10;" parent="5gdzuKLON3IAG99veX0M-92" vertex="1">
          <mxGeometry x="107.77336713995942" y="56.59392857142856" width="46.93117647058824" height="12.065714285714286" as="geometry" />
        </mxCell>
        <mxCell id="L8vNwuZ6u9W_NmucFzFV-11" value="" style="sketch=0;html=1;dashed=0;whitespace=wrap;fillColor=#2875E2;strokeColor=#ffffff;points=[[0.005,0.63,0],[0.1,0.2,0],[0.9,0.2,0],[0.5,0,0],[0.995,0.63,0],[0.72,0.99,0],[0.5,1,0],[0.28,0.99,0]];verticalLabelPosition=bottom;align=center;verticalAlign=top;shape=mxgraph.kubernetes.icon;prIcon=pod" parent="5gdzuKLON3IAG99veX0M-92" vertex="1">
          <mxGeometry x="79.9986612576065" y="16.970357142857154" width="17.77420814479638" height="19.306607142857146" as="geometry" />
        </mxCell>
        <mxCell id="L8vNwuZ6u9W_NmucFzFV-12" value="&lt;span style=&quot;font-size: 12px;&quot;&gt;Query service&lt;/span&gt;" style="text;html=1;strokeColor=none;fillColor=none;align=center;verticalAlign=middle;whiteSpace=wrap;rounded=0;fontSize=10;" parent="5gdzuKLON3IAG99veX0M-92" vertex="1">
          <mxGeometry x="107.77336713995942" y="20.58714285714288" width="46.93117647058824" height="12.065714285714286" as="geometry" />
        </mxCell>
        <mxCell id="L8vNwuZ6u9W_NmucFzFV-15" style="edgeStyle=orthogonalEdgeStyle;rounded=0;orthogonalLoop=1;jettySize=auto;html=1;exitX=1;exitY=0.5;exitDx=0;exitDy=0;entryX=0.005;entryY=0.63;entryDx=0;entryDy=0;entryPerimeter=0;fontSize=12;startArrow=blockThin;startFill=1;" parent="5gdzuKLON3IAG99veX0M-92" source="L8vNwuZ6u9W_NmucFzFV-16" edge="1">
          <mxGeometry relative="1" as="geometry">
            <mxPoint x="80" y="26.080000000000013" as="targetPoint" />
          </mxGeometry>
        </mxCell>
        <mxCell id="L8vNwuZ6u9W_NmucFzFV-16" value="&lt;font style=&quot;font-size: 10px;&quot;&gt;DB&lt;/font&gt;" style="shape=datastore;whiteSpace=wrap;html=1;fontSize=14;" parent="5gdzuKLON3IAG99veX0M-92" vertex="1">
          <mxGeometry x="29.795131845841752" y="11.983928571428578" width="19.41176470588235" height="29.28571428571428" as="geometry" />
        </mxCell>
        <mxCell id="5gdzuKLON3IAG99veX0M-106" style="rounded=0;orthogonalLoop=1;jettySize=auto;html=1;entryX=0.5;entryY=0;entryDx=0;entryDy=0;exitX=0.5;exitY=1;exitDx=0;exitDy=0;" parent="1" source="L8vNwuZ6u9W_NmucFzFV-19" target="5gdzuKLON3IAG99veX0M-111" edge="1">
          <mxGeometry relative="1" as="geometry">
            <mxPoint x="200" y="500" as="targetPoint" />
            <mxPoint x="181.9446922390723" y="314" as="sourcePoint" />
          </mxGeometry>
        </mxCell>
        <mxCell id="5gdzuKLON3IAG99veX0M-107" value="Result" style="edgeLabel;html=1;align=center;verticalAlign=middle;resizable=0;points=[];" parent="5gdzuKLON3IAG99veX0M-106" vertex="1" connectable="0">
          <mxGeometry x="-0.0877" y="-1" relative="1" as="geometry">
            <mxPoint as="offset" />
          </mxGeometry>
        </mxCell>
        <mxCell id="5gdzuKLON3IAG99veX0M-108" value="Result" style="rounded=0;orthogonalLoop=1;jettySize=auto;html=1;" parent="1" source="5gdzuKLON3IAG99veX0M-94" target="5gdzuKLON3IAG99veX0M-111" edge="1">
          <mxGeometry relative="1" as="geometry">
            <mxPoint x="170" y="500" as="targetPoint" />
          </mxGeometry>
        </mxCell>
        <mxCell id="5gdzuKLON3IAG99veX0M-112" style="rounded=0;orthogonalLoop=1;jettySize=auto;html=1;entryX=1;entryY=0.25;entryDx=0;entryDy=0;" parent="1" source="5gdzuKLON3IAG99veX0M-111" target="5gdzuKLON3IAG99veX0M-91" edge="1">
          <mxGeometry relative="1" as="geometry" />
        </mxCell>
        <mxCell id="5gdzuKLON3IAG99veX0M-113" value="Result" style="edgeLabel;html=1;align=center;verticalAlign=middle;resizable=0;points=[];" parent="5gdzuKLON3IAG99veX0M-112" vertex="1" connectable="0">
          <mxGeometry x="0.3893" y="1" relative="1" as="geometry">
            <mxPoint x="29" y="-7" as="offset" />
          </mxGeometry>
        </mxCell>
        <mxCell id="5gdzuKLON3IAG99veX0M-111" value="" style="rounded=1;whiteSpace=wrap;html=1;" parent="1" vertex="1">
          <mxGeometry x="300.0000000000001" y="440" width="200" height="80" as="geometry" />
        </mxCell>
        <mxCell id="L8vNwuZ6u9W_NmucFzFV-4" value="&lt;span style=&quot;font-size: 12px;&quot;&gt;Aggregation service&lt;/span&gt;" style="text;html=1;strokeColor=none;fillColor=none;align=center;verticalAlign=middle;whiteSpace=wrap;rounded=0;fontSize=10;" parent="1" vertex="1">
          <mxGeometry x="423.0000000000001" y="450" width="46.93" height="23.97" as="geometry" />
        </mxCell>
        <mxCell id="L8vNwuZ6u9W_NmucFzFV-5" value="" style="sketch=0;html=1;dashed=0;whitespace=wrap;fillColor=#2875E2;strokeColor=#ffffff;points=[[0.005,0.63,0],[0.1,0.2,0],[0.9,0.2,0],[0.5,0,0],[0.995,0.63,0],[0.72,0.99,0],[0.5,1,0],[0.28,0.99,0]];verticalLabelPosition=bottom;align=center;verticalAlign=top;shape=mxgraph.kubernetes.icon;prIcon=pod" parent="1" vertex="1">
          <mxGeometry x="391.30853955375267" y="452.00142857142856" width="19.39004524886878" height="19.306607142857146" as="geometry" />
        </mxCell>
        <mxCell id="L8vNwuZ6u9W_NmucFzFV-6" value="&lt;span style=&quot;font-size: 12px;&quot;&gt;Grafana Service&lt;/span&gt;" style="text;html=1;strokeColor=none;fillColor=none;align=center;verticalAlign=middle;whiteSpace=wrap;rounded=0;fontSize=10;" parent="1" vertex="1">
          <mxGeometry x="423.0000000000001" y="490" width="46.93" height="23.97" as="geometry" />
        </mxCell>
        <mxCell id="L8vNwuZ6u9W_NmucFzFV-7" value="" style="sketch=0;html=1;dashed=0;whitespace=wrap;fillColor=#2875E2;strokeColor=#ffffff;points=[[0.005,0.63,0],[0.1,0.2,0],[0.9,0.2,0],[0.5,0,0],[0.995,0.63,0],[0.72,0.99,0],[0.5,1,0],[0.28,0.99,0]];verticalLabelPosition=bottom;align=center;verticalAlign=top;shape=mxgraph.kubernetes.icon;prIcon=pod" parent="1" vertex="1">
          <mxGeometry x="391.30853955375267" y="492.00142857142856" width="19.39004524886878" height="19.306607142857146" as="geometry" />
        </mxCell>
        <mxCell id="L8vNwuZ6u9W_NmucFzFV-8" value="Trusted Third Party" style="text;html=1;strokeColor=none;fillColor=none;align=center;verticalAlign=middle;whiteSpace=wrap;rounded=0;" parent="1" vertex="1">
          <mxGeometry x="310.0000000000001" y="470" width="60" height="30" as="geometry" />
        </mxCell>
        <mxCell id="L8vNwuZ6u9W_NmucFzFV-17" value="]" style="group" parent="1" vertex="1" connectable="0">
          <mxGeometry x="90" y="180" width="180" height="110" as="geometry" />
        </mxCell>
        <mxCell id="L8vNwuZ6u9W_NmucFzFV-18" value="" style="rounded=1;whiteSpace=wrap;html=1;fontSize=14;" parent="L8vNwuZ6u9W_NmucFzFV-17" vertex="1">
          <mxGeometry width="180" height="90.72053571428572" as="geometry" />
        </mxCell>
        <mxCell id="L8vNwuZ6u9W_NmucFzFV-19" value="Organization 1&lt;br&gt;Data steward&amp;nbsp;" style="text;html=1;strokeColor=none;fillColor=none;align=center;verticalAlign=middle;whiteSpace=wrap;rounded=0;fontSize=14;" parent="L8vNwuZ6u9W_NmucFzFV-17" vertex="1">
          <mxGeometry x="14.400000000000002" y="97.98969072164948" width="151.20000000000002" height="17.010309278350515" as="geometry" />
        </mxCell>
        <mxCell id="L8vNwuZ6u9W_NmucFzFV-20" value="" style="sketch=0;html=1;dashed=0;whitespace=wrap;fillColor=#2875E2;strokeColor=#ffffff;points=[[0.005,0.63,0],[0.1,0.2,0],[0.9,0.2,0],[0.5,0,0],[0.995,0.63,0],[0.72,0.99,0],[0.5,1,0],[0.28,0.99,0]];verticalLabelPosition=bottom;align=center;verticalAlign=top;shape=mxgraph.kubernetes.icon;prIcon=pod" parent="L8vNwuZ6u9W_NmucFzFV-17" vertex="1">
          <mxGeometry x="79.9986612576065" y="54.44142857142856" width="17.77420814479638" height="19.306607142857146" as="geometry" />
        </mxCell>
        <mxCell id="L8vNwuZ6u9W_NmucFzFV-21" value="&lt;span style=&quot;font-size: 12px;&quot;&gt;Anonymise-service&lt;/span&gt;" style="text;html=1;strokeColor=none;fillColor=none;align=center;verticalAlign=middle;whiteSpace=wrap;rounded=0;fontSize=10;" parent="L8vNwuZ6u9W_NmucFzFV-17" vertex="1">
          <mxGeometry x="107.77336713995942" y="56.59392857142856" width="46.93117647058824" height="12.065714285714286" as="geometry" />
        </mxCell>
        <mxCell id="L8vNwuZ6u9W_NmucFzFV-22" value="" style="sketch=0;html=1;dashed=0;whitespace=wrap;fillColor=#2875E2;strokeColor=#ffffff;points=[[0.005,0.63,0],[0.1,0.2,0],[0.9,0.2,0],[0.5,0,0],[0.995,0.63,0],[0.72,0.99,0],[0.5,1,0],[0.28,0.99,0]];verticalLabelPosition=bottom;align=center;verticalAlign=top;shape=mxgraph.kubernetes.icon;prIcon=pod" parent="L8vNwuZ6u9W_NmucFzFV-17" vertex="1">
          <mxGeometry x="79.9986612576065" y="16.970357142857154" width="17.77420814479638" height="19.306607142857146" as="geometry" />
        </mxCell>
        <mxCell id="L8vNwuZ6u9W_NmucFzFV-23" value="&lt;span style=&quot;font-size: 12px;&quot;&gt;Query service&lt;/span&gt;" style="text;html=1;strokeColor=none;fillColor=none;align=center;verticalAlign=middle;whiteSpace=wrap;rounded=0;fontSize=10;" parent="L8vNwuZ6u9W_NmucFzFV-17" vertex="1">
          <mxGeometry x="107.77336713995942" y="20.58714285714288" width="46.93117647058824" height="12.065714285714286" as="geometry" />
        </mxCell>
        <mxCell id="L8vNwuZ6u9W_NmucFzFV-24" style="edgeStyle=orthogonalEdgeStyle;rounded=0;orthogonalLoop=1;jettySize=auto;html=1;exitX=1;exitY=0.5;exitDx=0;exitDy=0;entryX=0.005;entryY=0.63;entryDx=0;entryDy=0;entryPerimeter=0;fontSize=12;startArrow=blockThin;startFill=1;" parent="L8vNwuZ6u9W_NmucFzFV-17" source="L8vNwuZ6u9W_NmucFzFV-25" edge="1">
          <mxGeometry relative="1" as="geometry">
            <mxPoint x="80" y="26.080000000000013" as="targetPoint" />
          </mxGeometry>
        </mxCell>
        <mxCell id="L8vNwuZ6u9W_NmucFzFV-25" value="&lt;font style=&quot;font-size: 10px;&quot;&gt;DB&lt;/font&gt;" style="shape=datastore;whiteSpace=wrap;html=1;fontSize=14;" parent="L8vNwuZ6u9W_NmucFzFV-17" vertex="1">
          <mxGeometry x="29.795131845841752" y="11.983928571428578" width="19.41176470588235" height="29.28571428571428" as="geometry" />
        </mxCell>
      </root>
    </mxGraphModel>
  </diagram>
</mxfile>
